<svg xmlns="http://www.w3.org/2000/svg" viewBox="0 0 671 319">
    <g clip-path="url(#clip0_34_12)">
        <path d="M94.1 183.2V158.6H140.7V153.2H94.1V99.6H170.1V123.8H123.8V129.5H170.1V183.2H94.1Z" fill="#f8c56a"></path>
        <path d="M177.9 183.2V99.6H200.8L227.9 129.2L254.2 99.6H277.2V183.2H248.1V142.9L227.5 166.4L207.3 142.9V183.2H177.9Z" fill="#f8c56a"></path>
        <path d="M313.7 99.6H285V183.2H313.7V99.6Z" fill="#f8c56a"></path>
        <path d="M321.5 99.6H396.8V124.1H373.8V183.2H345.1V123.1H321.5V99.6Z" fill="#f8c56a"></path>
        <path d="M404.6 183.2V99.6H469.2L462.6 122.1H432.8V129.7H460.3L453.9 151.3H432.8V158.2H474.9L467.2 183.2H404.6Z" fill="#f8c56a"></path>
        <path d="M511 99.6L498.3 124.2H547.3V129.4H516.6L482.6 183.2H575.9V158H532.2L535.2 152.4H575.9V99.6H511Z" fill="#f8c56a"></path>
        <path d="M605 70.4V257.4H439.1L451.8 212.3H65V70.4H470.6L473.8 60H539.7L534 70.4H605ZM487.3 247.6C495.4 247.6 499.4 244.4 499.4 238C499.4 235.1 498.2 232.8 495.8 231.1C497.4 229.6 498.2 227.7 498.2 225.5C498.2 222.8 497.3 220.7 495.4 219.2C493.5 217.8 490.9 217 487.5 217H478.8V247.6H487.3ZM490.9 223.6C491.5 224 491.8 224.7 491.8 225.6C491.8 227.6 490.4 228.6 487.7 228.6H484.9V223H487.6C489.3 222.9 490.4 223.2 490.9 223.6ZM491.6 235.1C492.5 235.5 493 236.5 493 238C493 239.4 492.5 240.4 491.6 240.9C490.6 241.4 489.2 241.7 487.4 241.7H485V234.4H487.4C489.2 234.4 490.6 234.6 491.6 235.1ZM525 247.6V241.7H513.8V235H523.5V229.1H513.8V223H524.6V217.1H507.8V247.6H525ZM529.1 217.1V223H539.1V247.6H545.2V223H555.2V217.1H529.1ZM583.3 247.6L571.8 217.1H565.4L554.4 247.6H560.9L563.2 241.2H574.2L576.7 247.6H583.3ZM572 235.2H565.3L568.6 226L572 235.2ZM598 205.4V77.4H522.5L527.9 67H478.9L475.7 77.4H71.9V205.4H460.9L453.5 229.3L473.8 205.4H598Z" fill="#f8c56a"></path>
    </g>
    <defs>
        <clipPath id="clip0_34_12">
            <rect width="540" height="197.4" fill="white" transform="translate(65 60)"></rect>
        </clipPath>
    </defs>
</svg>